<svg xmlns="http://www.w3.org/2000/svg" viewBox="0 0 116.86 36.97"><g id="b67c6787-a8de-4f9c-a8ad-2470f9bc4cd5" data-name="Layer 2"><g id="e6e736b4-64c6-4379-ae5a-d7248b44e3dc" data-name="Layer 1"><path d="M0,18.83A18.62,18.62,0,0,0,1.13,26a19,19,0,0,0,3.94,6.12c1.69,1.69,4.11,2.45,6.35,3.39a17.72,17.72,0,0,0,6.89,1.3c2.49,0,5.14.61,7.31-.29s4.08-2.86,5.77-4.56,2.47-4,3.4-6.25,1.89-4.34,1.89-6.83a18.51,18.51,0,0,0-1.34-7C34.4,9.53,33.48,7,31.79,5.35a19.62,19.62,0,0,0-6.31-3.84A19.28,19.28,0,0,0,18.31,0c-2.49,0-4.82,1.07-7,2a18.43,18.43,0,0,0-6,3.83A18.85,18.85,0,0,0,1,11.68,18.72,18.72,0,0,0,0,18.83Z" style="fill:#493829"/><path d="M34.62,18.83a16.18,16.18,0,0,0-1.39-6.18,16.34,16.34,0,0,0-3.46-5.28c-1.49-1.49-3.51-2.16-5.48-3a15.2,15.2,0,0,0-6-1.39,15.17,15.17,0,0,0-6,1.41c-2,.82-4.17,1.31-5.66,2.79a16.8,16.8,0,0,0-3.34,5.43,16.43,16.43,0,0,0-1.55,6.2c0,2.18,1.33,4.06,2.12,6a15.54,15.54,0,0,0,3.16,5.27,15.87,15.87,0,0,0,5.11,3.57,15.66,15.66,0,0,0,6.13.75c2.19,0,4.43.53,6.33-.26a16.68,16.68,0,0,0,5.15-3.81A16.17,16.17,0,0,0,33,24.9,15.93,15.93,0,0,0,34.62,18.83Z" style="fill:#fff"/><path d="M16.79,20.54l-2.15,1L3.76,16.22a14.13,14.13,0,0,0-.22,2l9.83,4-2.16,1L3.55,19.41a14.75,14.75,0,0,0,.19,1.89L10,23.81l-2.16,1L4.12,23a15,15,0,0,0,2.23,4.51l12-6,11.88,6A14.67,14.67,0,0,0,32.49,23l-3.66,1.78-2.16-1,6.21-2.52a14.42,14.42,0,0,0,.19-1.88l-7.66,3.73-2.16-1,9.82-4a15.83,15.83,0,0,0-.21-2L22,21.51l-2.16-1,12.84-5.21a14.49,14.49,0,0,0-.58-1.87L18.45,18.71,4.22,14.32c-.1.33-.19.67-.28,1Z" style="fill:#7d863b"/><path d="M18.45,17.33l4.81-1.85a6,6,0,0,0-10,.24Z" style="fill:#493829"/><path d="M24.17,32.41A14.35,14.35,0,0,0,26.74,31l-8.45-3.62L9.8,30.92a15.2,15.2,0,0,0,2.61,1.47l5.92-2.94Z" style="fill:#c03b25"/><path d="M29.68,28.28,18.29,23.41,6.87,28.21a15.66,15.66,0,0,0,2,2l9.47-4.71,9.37,4.75A14.18,14.18,0,0,0,29.68,28.28Z" style="fill:#c03b25"/><path d="M18.29,31.3,14.18,33a14.51,14.51,0,0,0,8.19,0Z" style="fill:#c03b25"/><path d="M18.45,5.86c4,0,8,2.48,11.49,7l1.59-.61A14.78,14.78,0,0,0,4.71,13l1.65.51C9.81,8.58,14.08,5.86,18.45,5.86Z" style="fill:#f68b1f"/><path d="M18.45,7c-3.92,0-7.79,2.45-11,6.91l2,.6c2.56-3.65,5.72-5.67,9-5.67,2.95,0,6,1.85,8.55,5.19l1.95-.75C25.66,9.19,22,7,18.45,7Z" style="fill:#f68b1f"/><path d="M18.37,9.61c-2.9,0-5.76,1.83-8.13,5.12l1.7.52a7.3,7.3,0,0,1,12.55-.32l1.63-.63C23.73,11.28,21,9.61,18.37,9.61Z" style="fill:#f68b1f"/><path d="M50.64,12.67a0,0,0,0,1,0,.05l.13,2.56a10.07,10.07,0,0,1-2,.21c-1.36.24-2,.43-2,.54v1.33l3.44-.59c.08.5.14,1.31.22,2.45-.18.06-1.33.27-3.42.61.08.77.28,2.11.59,4-.31.12-1.32.34-3,.69a30.45,30.45,0,0,1-.88-7.36V16a6.61,6.61,0,0,1,.17-2.4,31.17,31.17,0,0,1,6.61-1Z" style="fill:#4a3829"/><path d="M54.45,12.54a0,0,0,0,1,0,0c0,1.58.13,5.36.38,11.3q0,.21-2.73.48l0-.07q-.57-8.67-.57-11.54a1.15,1.15,0,0,1,.8-.21Z" style="fill:#4a3829"/><path d="M60.86,12.58c1.76.11,2.65.35,2.65.72q0,2-2.71,10.53c-.21.41-.86.62-2,.62-.83,0-1.25-.08-1.25-.24q-1.17-6.08-2.18-10c0-.66.93-1.15,2.79-1.49.37,1.62.77,3.63,1.2,6.07h.16c.45-1.88.9-3.94,1.33-6.21Z" style="fill:#4a3829"/><path d="M70.61,12.53v2.59a9.93,9.93,0,0,1-2,.35c-1.07.23-1.62.44-1.62.64a2.26,2.26,0,0,0,0,.47v.75H67l3.44-.62,0,.06c0,.56,0,1.36.13,2.39-.13.06-1.12.24-3,.54a.5.5,0,0,0-.58.53,3.87,3.87,0,0,1,.05.53v.35h.13c.12,0,1.39-.24,3.77-.74A15.11,15.11,0,0,1,71.3,23v.17a59.75,59.75,0,0,1-6,1.16s-.13.06-.28.06a14.21,14.21,0,0,1-.73-5.51v-.35c0-3.15.14-4.74.41-4.74a30.51,30.51,0,0,1,5.93-1.28Z" style="fill:#4a3829"/><path d="M85.06,13.46q-2.72,5.77-5.75,11.33a3.23,3.23,0,0,1-.61.11,2.29,2.29,0,0,1-2-1.5v-.07c1-1.81,1.83-3.33,2.42-4.54a7.24,7.24,0,0,1-1.39-1.52c-.48-.71-1.09-1.65-1.81-2.84.59-1.21,1.33-1.82,2.17-1.82a21.68,21.68,0,0,0,2.55,3.5,28.82,28.82,0,0,0,2-4A2.84,2.84,0,0,1,85.06,13.46Z" style="fill:#4a3829"/><path d="M92.18,23.35a5.29,5.29,0,0,1-2.23,1c-.29,0-.65-1.13-1.1-3.35a8,8,0,0,0-2.23.27,19.28,19.28,0,0,1-1,3.25l-.16.05c-.44,0-1.12-.43-2-1.3a36.7,36.7,0,0,1,2.84-9,2.23,2.23,0,0,1,1.47-1.09,7.36,7.36,0,0,1,1.89-.45C89.76,12.9,90.59,16.45,92.18,23.35ZM88,16.45h-.16a6,6,0,0,0-.69,2.26h.12c.17,0,.57-.05,1.19-.13Z" style="fill:#4a3829"/><path d="M100.38,14.24a5.2,5.2,0,0,1,.28,1.33c0,1.39-.89,2.51-2.67,3.33a21.68,21.68,0,0,1,3.09,2.5.5.5,0,0,1,.1.22c-.61,1.25-1.19,1.87-1.73,1.87l-3.72-3v.31A25.74,25.74,0,0,0,96,23.91c-.31.08-1.23.27-2.79.54l0-.06c-.14-3.35-.22-5.68-.22-7,0-2.42.16-3.62.46-3.62a6.91,6.91,0,0,1,4.07-1.18A3,3,0,0,1,100.38,14.24Zm-4.87,3a2.2,2.2,0,0,0,2.27-1.35v-.24c0-.43-.32-.64-1-.64-.85,0-1.26.2-1.26.58a9.35,9.35,0,0,0,0,1Z" style="fill:#4a3829"/><path d="M104.11,12.61q4.36,0,5.81,3.65a9.66,9.66,0,0,1,.37,2.51v.13c0,2.42-1.51,4.13-4.5,5.14a12.22,12.22,0,0,1-3,.45h-.06s-.07,0-.07-.07c-.05-2.51-.14-5.22-.25-8.11H102a1.11,1.11,0,0,1-.46-.1c0-.94-.07-1.75-.07-2.37v-.58l0-.28a7.48,7.48,0,0,1,2.57-.37Zm1.12,3.84c0,.69.06,2.14.21,4.35a2,2,0,0,0,1.86-2.09v-.32a2,2,0,0,0-1.4-2.08,2.61,2.61,0,0,0-.77-.2Z" style="fill:#4a3829"/><path d="M116.86,12.7a10.47,10.47,0,0,1-.33,2.53h-1c-.91,0-1.36.23-1.36.68v.17c0,.29.55.9,1.65,1.84a3.72,3.72,0,0,1,.93,2.53c0,2-1.38,3.28-4.15,4a1.7,1.7,0,0,1-.59.07c-.27-.21-.45-1.09-.51-2.63v-.18a5.8,5.8,0,0,1,1.25-.32c.78-.36,1.17-.75,1.17-1.18s-.6-1.25-1.76-2.08a3.07,3.07,0,0,1-1-2.08c0-1.88,1.35-3,4-3.35.25,0,.68,0,1.28-.06A1.17,1.17,0,0,1,116.86,12.7Z" style="fill:#4a3829"/></g></g></svg>