<svg xmlns="http://www.w3.org/2000/svg" viewBox="0 0 131.44 36.97"><g id="ec87f281-db26-4fdf-bf3d-78ae94dccb68" data-name="Layer 2"><g id="a4a0015b-2a3c-4e11-9f64-4f0c3c5fea9f" data-name="Layer 1"><path d="M0,18.83A18.62,18.62,0,0,0,1.13,26a19,19,0,0,0,3.94,6.12c1.69,1.69,4.11,2.45,6.35,3.39a17.72,17.72,0,0,0,6.89,1.3c2.49,0,5.14.61,7.31-.29s4.08-2.86,5.77-4.56,2.47-4,3.4-6.25,1.89-4.34,1.89-6.83a18.51,18.51,0,0,0-1.34-7C34.4,9.53,33.48,7,31.79,5.35a19.62,19.62,0,0,0-6.31-3.84A19.28,19.28,0,0,0,18.31,0c-2.49,0-4.82,1.07-7,2a18.43,18.43,0,0,0-6,3.83A18.85,18.85,0,0,0,1,11.68,18.72,18.72,0,0,0,0,18.83Z" style="fill:#2e3333"/><path d="M34.62,18.83a16.18,16.18,0,0,0-1.39-6.18,16.34,16.34,0,0,0-3.46-5.28c-1.49-1.49-3.51-2.16-5.48-3a15.2,15.2,0,0,0-6-1.39,15.17,15.17,0,0,0-6,1.41c-2,.82-4.17,1.31-5.66,2.79a16.8,16.8,0,0,0-3.34,5.43,16.43,16.43,0,0,0-1.55,6.2c0,2.18,1.33,4.06,2.12,6a15.54,15.54,0,0,0,3.16,5.27,15.87,15.87,0,0,0,5.11,3.57,15.66,15.66,0,0,0,6.13.75c2.19,0,4.43.53,6.33-.26a16.68,16.68,0,0,0,5.15-3.81A16.17,16.17,0,0,0,33,24.9,15.93,15.93,0,0,0,34.62,18.83Z" style="fill:#fff"/><path d="M16.79,20.54l-2.15,1L3.76,16.22a14.13,14.13,0,0,0-.22,2l9.83,4-2.16,1L3.55,19.41a14.75,14.75,0,0,0,.19,1.89L10,23.81l-2.16,1L4.12,23a15,15,0,0,0,2.23,4.51l12-6,11.88,6A14.67,14.67,0,0,0,32.49,23l-3.66,1.78-2.16-1,6.21-2.52a14.42,14.42,0,0,0,.19-1.88l-7.66,3.73-2.16-1,9.82-4a15.83,15.83,0,0,0-.21-2L22,21.51l-2.16-1,12.84-5.21a14.49,14.49,0,0,0-.58-1.87L18.45,18.71,4.22,14.32c-.1.33-.19.67-.28,1Z" style="fill:#7d863b"/><path d="M18.45,17.33l4.81-1.85a6,6,0,0,0-10,.24Z" style="fill:#493829"/><path d="M24.17,32.41A14.35,14.35,0,0,0,26.74,31l-8.45-3.62L9.8,30.92a15.2,15.2,0,0,0,2.61,1.47l5.92-2.94Z" style="fill:#c03b25"/><path d="M29.68,28.28,18.29,23.41,6.87,28.21a15.66,15.66,0,0,0,2,2l9.47-4.71,9.37,4.75A14.18,14.18,0,0,0,29.68,28.28Z" style="fill:#c03b25"/><path d="M18.29,31.3,14.18,33a14.51,14.51,0,0,0,8.19,0Z" style="fill:#c03b25"/><path d="M18.45,5.86c4,0,8,2.48,11.49,7l1.59-.61A14.78,14.78,0,0,0,4.71,13l1.65.51C9.81,8.58,14.08,5.86,18.45,5.86Z" style="fill:#f68b1f"/><path d="M18.45,7c-3.92,0-7.79,2.45-11,6.91l2,.6c2.56-3.65,5.72-5.67,9-5.67,2.95,0,6,1.85,8.55,5.19l1.95-.75C25.66,9.19,22,7,18.45,7Z" style="fill:#f68b1f"/><path d="M18.37,9.61c-2.9,0-5.76,1.83-8.13,5.12l1.7.52a7.3,7.3,0,0,1,12.55-.32l1.63-.63C23.73,11.28,21,9.61,18.37,9.61Z" style="fill:#f68b1f"/><path d="M51.82,11.5s.06,0,.06.05L52,14.63a11.75,11.75,0,0,1-2.44.25c-1.64.29-2.47.52-2.47.66v1.6l4.14-.72c.1.6.17,1.58.27,2.95-.21.07-1.6.33-4.12.73.1.92.35,2.54.71,4.83-.36.13-1.57.4-3.61.83a36.18,36.18,0,0,1-1.06-8.86V15.54c0-1.93.08-2.89.21-2.89a37.32,37.32,0,0,1,8-1.15Z" style="fill:#2e3333"/><path d="M56.4,11.34s0,0,0,0c0,1.91.16,6.45.47,13.59,0,.17-1.1.36-3.29.58l0-.08c-.47-6.95-.7-11.59-.7-13.88a1.41,1.41,0,0,1,1-.25Z" style="fill:#2e3333"/><path d="M64.11,11.38c2.12.14,3.18.42,3.18.87q0,2.41-3.26,12.66c-.25.5-1,.75-2.4.75-1,0-1.5-.1-1.5-.29-1-4.87-1.81-8.87-2.62-12,0-.78,1.12-1.38,3.35-1.79.44,1.95.92,4.37,1.44,7.3h.19c.54-2.25,1.08-4.74,1.6-7.47Z" style="fill:#2e3333"/><path d="M75.83,11.32v3.12a12.53,12.53,0,0,1-2.47.42c-1.29.27-1.94.52-1.94.77a2.47,2.47,0,0,0-.06.56v.91h.14l4.13-.75,0,.07c0,.68.06,1.64.16,2.87-.16.08-1.35.29-3.56.66-.45,0-.68.21-.7.63a4.11,4.11,0,0,1,.06.64v.42h.16c.15,0,1.67-.29,4.54-.89a18.71,18.71,0,0,1,.32,3.1v.21a71.05,71.05,0,0,1-7.27,1.39c-.06.06-.15.08-.33.08q-.89-1.86-.88-6.62v-.43q0-5.69.5-5.69a35.73,35.73,0,0,1,7.12-1.54Z" style="fill:#2e3333"/><path d="M93.2,12.44q-3.27,7-6.91,13.62a4,4,0,0,1-.73.14,2.78,2.78,0,0,1-2.41-1.81v-.08c1.23-2.17,2.2-4,2.91-5.46A8.36,8.36,0,0,1,84.38,17c-.57-.85-1.3-2-2.17-3.41.71-1.46,1.6-2.19,2.62-2.19a25.4,25.4,0,0,0,3.06,4.21,34.92,34.92,0,0,0,2.4-4.86A3.38,3.38,0,0,1,93.2,12.44Z" style="fill:#2e3333"/><path d="M101.76,24.33a6.35,6.35,0,0,1-2.68,1.18c-.34,0-.79-1.35-1.32-4a9.68,9.68,0,0,0-2.68.33,23.94,23.94,0,0,1-1.17,3.91l-.2.06c-.52,0-1.34-.52-2.44-1.56q1.65-7.65,3.41-10.88A2.66,2.66,0,0,1,96.45,12a8.32,8.32,0,0,1,2.27-.54C98.85,11.77,99.85,16,101.76,24.33Zm-5-8.29h-.19a7.33,7.33,0,0,0-.83,2.71h.16c.19,0,.67-.06,1.42-.15Z" style="fill:#2e3333"/><path d="M111.62,13.38A6.51,6.51,0,0,1,112,15c0,1.67-1.08,3-3.21,4a27.8,27.8,0,0,1,3.71,3,.62.62,0,0,1,.12.27c-.73,1.51-1.43,2.26-2.08,2.26L106,20.89v.36A33.26,33.26,0,0,0,106.3,25c-.36.09-1.48.32-3.34.65l0-.08q-.27-6-.27-8.43c0-2.9.19-4.34.56-4.34a8.17,8.17,0,0,1,4.88-1.43A3.61,3.61,0,0,1,111.62,13.38ZM105.77,17a2.66,2.66,0,0,0,2.73-1.61v-.29c0-.52-.39-.77-1.16-.77-1,0-1.52.23-1.52.69a10.67,10.67,0,0,0,0,1.23Z" style="fill:#2e3333"/><path d="M116.11,11.42q5.25,0,7,4.39a11.55,11.55,0,0,1,.44,3V19c0,2.91-1.81,5-5.4,6.18a14.33,14.33,0,0,1-3.66.54h-.08c-.06,0-.07,0-.07-.08-.06-3-.18-6.27-.31-9.76h-.46a1.19,1.19,0,0,1-.56-.11c-.06-1.14-.08-2.1-.08-2.85v-.69l-.06-.35a9,9,0,0,1,3.1-.44ZM117.45,16c0,.83.08,2.58.25,5.23a2.41,2.41,0,0,0,2.24-2.52v-.38a2.48,2.48,0,0,0-1.68-2.51,3.22,3.22,0,0,0-.92-.23Z" style="fill:#2e3333"/><path d="M131.44,11.53a12.56,12.56,0,0,1-.41,3.05H129.9c-1.1,0-1.64.27-1.64.8v.22c0,.34.66,1.07,2,2.21a4.45,4.45,0,0,1,1.12,3c0,2.37-1.65,3.94-5,4.77a2.18,2.18,0,0,1-.72.08c-.32-.25-.54-1.31-.61-3.16v-.21a6.1,6.1,0,0,1,1.5-.38c.94-.45,1.4-.91,1.4-1.43s-.71-1.5-2.11-2.5a3.7,3.7,0,0,1-1.2-2.5c0-2.25,1.62-3.58,4.85-4,.31,0,.83,0,1.54-.08A1.47,1.47,0,0,1,131.44,11.53Z" style="fill:#2e3333"/></g></g></svg>